<svg xmlns="http://www.w3.org/2000/svg" width="100.0mm" height="20.0mm" viewBox="0 0 100.0 20.0"><circle cx="4.5" cy="8.6" r="3.0" fill="#FFAE3D"/><path fill="#FFFFFF" d="M16.13 12.00V11.21H15.53V8.83C15.53 7.75 14.80 7.15 13.61 7.15C12.61 7.15 11.96 7.59 11.70 8.10L12.29 8.59C12.55 8.19 12.91 7.93 13.51 7.93C14.19 7.93 14.53 8.26 14.53 8.90V9.26H13.62C12.22 9.26 11.55 9.76 11.55 10.68C11.55 11.57 12.17 12.11 13.14 12.11C13.88 12.11 14.38 11.77 14.56 11.20H14.61C14.66 11.68 14.95 12.00 15.52 12.00ZM13.42 11.38C12.89 11.38 12.56 11.16 12.56 10.73V10.55C12.56 10.13 12.91 9.90 13.64 9.90H14.53V10.59C14.53 11.05 14.07 11.38 13.42 11.38Z M19.88 12.00 21.57 7.26H20.57L19.92 9.26L19.31 11.16H19.25L18.64 9.26L17.98 7.26H16.95L18.65 12.00Z M27.14 12.00V11.21H26.55V8.83C26.55 7.75 25.81 7.15 24.62 7.15C23.62 7.15 22.98 7.59 22.71 8.10L23.31 8.59C23.56 8.19 23.92 7.93 24.53 7.93C25.21 7.93 25.55 8.26 25.55 8.90V9.26H24.64C23.23 9.26 22.56 9.76 22.56 10.68C22.56 11.57 23.19 12.11 24.15 12.11C24.90 12.11 25.39 11.77 25.57 11.20H25.62C25.68 11.68 25.96 12.00 26.53 12.00ZM24.44 11.38C23.90 11.38 23.57 11.16 23.57 10.73V10.55C23.57 10.13 23.92 9.90 24.66 9.90H25.55V10.59C25.55 11.05 25.08 11.38 24.44 11.38Z M30.57 6.40C31.06 6.40 31.25 6.16 31.25 5.86V5.67C31.25 5.36 31.06 5.13 30.56 5.13C30.06 5.13 29.88 5.36 29.88 5.67V5.86C29.88 6.16 30.06 6.40 30.57 6.40ZM28.45 12.00H32.58V11.19H31.06V7.26H28.45V8.07H30.06V11.19H28.45Z M33.72 12.00H37.86V11.19H36.29V5.21H33.72V6.02H35.29V11.19H33.72Z M43.66 12.00V11.21H43.07V8.83C43.07 7.75 42.33 7.15 41.14 7.15C40.14 7.15 39.50 7.59 39.23 8.10L39.83 8.59C40.09 8.19 40.44 7.93 41.05 7.93C41.73 7.93 42.07 8.26 42.07 8.90V9.26H41.16C39.76 9.26 39.09 9.76 39.09 10.68C39.09 11.57 39.71 12.11 40.67 12.11C41.42 12.11 41.91 11.77 42.10 11.20H42.14C42.20 11.68 42.48 12.00 43.05 12.00ZM40.96 11.38C40.43 11.38 40.09 11.16 40.09 10.73V10.55C40.09 10.13 40.44 9.90 41.18 9.90H42.07V10.59C42.07 11.05 41.60 11.38 40.96 11.38Z M44.77 12.00H45.77V11.19H45.82C46.10 11.76 46.56 12.11 47.25 12.11C48.36 12.11 49.08 11.26 49.08 9.63C49.08 8.01 48.36 7.15 47.25 7.15C46.56 7.15 46.10 7.50 45.82 8.07H45.77V5.21H44.77ZM46.84 11.29C46.26 11.29 45.77 11.00 45.77 10.42V8.84C45.77 8.26 46.26 7.97 46.84 7.97C47.59 7.97 48.02 8.48 48.02 9.25V10.02C48.02 10.79 47.59 11.29 46.84 11.29Z M50.24 12.00H54.38V11.19H52.81V5.21H50.24V6.02H51.81V11.19H50.24Z M57.91 12.11C58.88 12.11 59.54 11.68 59.86 11.13L59.24 10.58C58.97 11.02 58.53 11.30 57.93 11.30C57.11 11.30 56.62 10.78 56.62 10.04V9.88H60.01V9.50C60.01 8.11 59.17 7.15 57.84 7.15C56.49 7.15 55.61 8.12 55.61 9.64C55.61 11.15 56.46 12.11 57.91 12.11ZM57.84 7.92C58.53 7.92 58.99 8.40 58.99 9.15V9.24H56.62V9.17C56.62 8.44 57.12 7.92 57.84 7.92Z"/><path fill="#FFAE3D" d="M71.01 8.63V7.81H66.64V8.63ZM71.01 10.58V9.76H66.64V10.58Z M81.93 12.00V11.19H79.91V8.07H81.93V7.26H79.91V5.59H78.97V6.78C78.97 7.14 78.84 7.26 78.49 7.26H77.45V8.07H78.91V10.80C78.91 11.50 79.29 12.00 80.12 12.00Z M83.29 12.00H86.89V11.19H85.54V9.42C85.54 8.76 85.98 8.22 86.79 8.22H87.73V7.26H87.16C86.20 7.26 85.78 7.86 85.60 8.52H85.54V7.26H83.29V8.07H84.54V11.19H83.29Z M91.83 12.00H92.83V7.26H91.83V10.48C91.83 11.03 91.32 11.29 90.80 11.29C90.16 11.29 89.82 10.92 89.82 10.16V7.26H88.82V10.31C88.82 11.46 89.46 12.11 90.42 12.11C91.20 12.11 91.58 11.69 91.79 11.19H91.83Z M96.46 12.11C97.43 12.11 98.09 11.68 98.41 11.13L97.79 10.58C97.52 11.02 97.08 11.30 96.48 11.30C95.66 11.30 95.16 10.78 95.16 10.04V9.88H98.56V9.50C98.56 8.11 97.71 7.15 96.38 7.15C95.03 7.15 94.15 8.12 94.15 9.64C94.15 11.15 95.01 12.11 96.46 12.11ZM96.38 7.92C97.08 7.92 97.54 8.40 97.54 9.15V9.24H95.16V9.17C95.16 8.44 95.67 7.92 96.38 7.92Z"/></svg>